<svg width="71" height="71" viewBox="0 0 71 71" fill="none" xmlns="http://www.w3.org/2000/svg">
<ellipse cx="27.6254" cy="36.7853" rx="27.3636" ry="23.8636" fill="white"/>
<path d="M35.8965 0.830811C55.2271 0.830811 70.8965 16.5002 70.8965 35.8308C70.8965 55.1615 55.2271 70.8308 35.8965 70.8308C16.5658 70.8308 0.896484 55.1615 0.896484 35.8308C0.896484 16.5002 16.5658 0.830811 35.8965 0.830811ZM47.97 50.0971C48.6137 48.1219 51.6297 28.4367 52.0026 24.5578C52.1152 23.383 51.7439 22.6023 51.0165 22.2539C50.1369 21.8308 48.8343 22.0423 47.3232 22.5871C45.2506 23.3343 18.7541 34.5845 17.2232 35.2358C15.7715 35.8521 14.3989 36.5247 14.3989 37.4986C14.3989 38.1834 14.8052 38.5684 15.9252 38.9686C17.0908 39.3841 20.0263 40.2743 21.7595 40.7521C23.4289 41.2132 25.3295 40.813 26.3947 40.151C27.5239 39.4495 40.5545 30.7299 41.4904 29.966C42.4247 29.2021 43.1704 30.1806 42.4065 30.946C41.6426 31.7099 32.6978 40.3915 31.5184 41.5936C30.0865 43.053 31.103 44.5656 32.0632 45.1712C33.1604 45.8621 41.0506 51.1547 42.2391 52.0039C43.4276 52.853 44.6328 53.238 45.736 53.238C46.8393 53.238 47.4206 51.7847 47.97 50.0971Z" fill="black"/>
</svg>
