<svg width="329" height="110" viewBox="0 0 329 110" fill="none" xmlns="http://www.w3.org/2000/svg">
<path d="M45.11 39.55C44.4167 39.1167 43.81 38.7267 43.29 38.38C42.77 38.0333 42.1633 37.6433 41.47 37.21C41.5567 37.0367 41.6 36.8633 41.6 36.69C41.6 36.43 41.6867 36.2133 41.86 36.04C42.0333 35.6067 42.2067 35.2167 42.38 34.87C42.5533 34.5233 42.7267 34.1333 42.9 33.7C44.46 30.7533 45.5 27.7633 46.02 24.73C46.1067 23.7767 46.1067 22.8233 46.02 21.87C46.02 20.9167 45.89 19.9633 45.63 19.01C45.2833 18.75 44.9367 18.62 44.59 18.62C44.2433 18.62 43.8967 18.62 43.55 18.62C43.03 18.62 42.4667 18.6633 41.86 18.75C41.34 18.75 40.82 18.8367 40.3 19.01C38.48 19.53 36.8767 20.4833 35.49 21.87C34.5367 22.8233 33.67 23.7767 32.89 24.73C32.11 25.6833 31.3733 26.7233 30.68 27.85C29.38 30.0167 28.08 32.1833 26.78 34.35C25.48 36.5167 24.2233 38.7267 23.01 40.98C22.23 42.6267 21.5367 44.2733 20.93 45.92C20.3233 47.5667 19.76 49.2567 19.24 50.99C18.46 53.2433 17.81 55.54 17.29 57.88C16.8567 60.22 16.4667 62.6033 16.12 65.03C16.0333 65.7233 15.99 66.46 15.99 67.24C15.99 68.02 15.9467 68.7567 15.86 69.45C15.9467 71.7033 15.9467 74 15.86 76.34C15.86 78.5933 16.0333 80.89 16.38 83.23C16.38 84.0967 16.5967 84.79 17.03 85.31C17.29 85.4833 17.5067 85.5267 17.68 85.44C17.8533 85.2667 18.0267 85.1367 18.2 85.05C20.4533 83.6633 22.4033 81.67 24.05 79.07C24.57 78.1167 25.09 77.1633 25.61 76.21C26.13 75.2567 26.6067 74.3033 27.04 73.35C27.82 71.79 28.5567 70.23 29.25 68.67C30.03 67.11 30.81 65.55 31.59 63.99C32.7167 61.4767 33.4533 59.0933 33.8 56.84C33.8867 56.4067 33.9733 55.9733 34.06 55.54C34.1467 55.1067 34.32 54.6733 34.58 54.24C35.1 54.0667 35.75 54.11 36.53 54.37C37.3967 54.7167 38.1767 55.0633 38.87 55.41C39.65 55.67 40.43 55.9733 41.21 56.32C41.5567 56.4067 41.9033 56.71 42.25 57.23C42.1633 58.4433 42.12 59.6133 42.12 60.74C42.12 61.78 42.2067 62.9067 42.38 64.12C42.7267 64.4667 43.03 64.9 43.29 65.42C43.29 65.5067 43.3767 65.7233 43.55 66.07C43.3767 66.59 43.29 67.11 43.29 67.63C43.29 68.15 43.2033 68.6267 43.03 69.06C42.5967 70.1867 42.4233 71.3133 42.51 72.44C42.5967 73.5667 42.7267 74.6933 42.9 75.82C42.9867 76.2533 43.0733 76.6867 43.16 77.12C43.2467 77.5533 43.29 77.9867 43.29 78.42C43.6367 81.54 44.1567 84.66 44.85 87.78C45.1967 89.08 45.5 90.38 45.76 91.68C46.1067 92.98 46.4967 94.28 46.93 95.58C47.19 96.2733 47.45 96.9667 47.71 97.66C47.97 98.3533 48.3167 99.0467 48.75 99.74C49.01 100.173 49.01 100.563 48.75 100.91C48.4033 100.91 48.23 100.91 48.23 100.91C47.3633 100.477 46.4533 100.087 45.5 99.74C44.6333 99.48 43.7233 99.1767 42.77 98.83C41.73 98.3967 40.82 97.8333 40.04 97.14C39.26 96.4467 38.6533 95.5367 38.22 94.41C37.7867 93.4567 37.3533 92.46 36.92 91.42C36.5733 90.4667 36.1833 89.47 35.75 88.43C35.5767 88.3433 35.4467 88.3433 35.36 88.43C35.36 88.6033 35.2733 88.7767 35.1 88.95C34.84 89.3833 34.6233 89.73 34.45 89.99C34.2767 90.3367 34.06 90.6833 33.8 91.03C32.8467 92.4167 31.72 93.5867 30.42 94.54C29.2067 95.58 27.82 96.3167 26.26 96.75C23.66 97.4433 21.3633 97.1833 19.37 95.97C18.9367 95.7967 18.72 95.6667 18.72 95.58C16.9 94.28 14.9933 93.0667 13 91.94C11.0933 90.9 9.14333 89.7733 7.15 88.56C4.55 87.0867 2.90333 84.79 2.21 81.67C1.60333 79.33 1.21333 76.99 1.04 74.65C0.953333 72.31 0.953333 69.97 1.04 67.63C1.12667 66.6767 1.12667 65.7233 1.04 64.77C1.04 63.8167 1.08333 62.8633 1.17 61.91C1.51667 59.2233 1.90667 56.6233 2.34 54.11C2.86 51.5967 3.59667 49.0833 4.55 46.57C5.15667 44.8367 5.89333 42.9733 6.76 40.98C7.71333 38.64 8.84 36.43 10.14 34.35C11.44 32.1833 12.8267 30.1033 14.3 28.11C15.4267 26.6367 16.51 25.25 17.55 23.95C18.59 22.5633 19.7167 21.1767 20.93 19.79C21.71 18.8367 22.5767 17.97 23.53 17.19C24.4833 16.3233 25.48 15.5433 26.52 14.85C27.3867 14.33 28.2533 13.8533 29.12 13.42C30.0733 12.9867 31.07 12.6833 32.11 12.51C34.7967 11.9033 37.5267 12.12 40.3 13.16C41.86 13.7667 43.4633 14.6767 45.11 15.89C45.5433 16.3233 46.02 16.7133 46.54 17.06C47.1467 17.4067 47.71 17.7967 48.23 18.23C48.75 18.5767 49.14 18.88 49.4 19.14C50.5267 20.0933 51.09 21.22 51.09 22.52C51.2633 24.5133 51.09 26.3767 50.57 28.11C50.1367 30.6233 49.3133 32.8767 48.1 34.87C47.6667 35.4767 47.2767 36.0833 46.93 36.69C46.5833 37.2967 46.1933 37.9467 45.76 38.64C45.6733 38.8133 45.5433 38.9867 45.37 39.16C45.2833 39.2467 45.1967 39.3767 45.11 39.55ZM54.3034 41.5C54.9968 41.3267 55.5601 41.3267 55.9934 41.5C56.5134 41.6733 56.9901 41.89 57.4234 42.15C58.2901 42.7567 59.1568 43.2333 60.0234 43.58C60.4568 43.7533 60.8034 43.97 61.0634 44.23C61.4101 44.4033 61.6701 44.5767 61.8434 44.75C62.1901 45.3567 62.3634 45.92 62.3634 46.44C62.4501 46.96 62.4501 47.4367 62.3634 47.87C62.1034 49.95 62.1468 51.8567 62.4934 53.59C62.4934 53.85 62.6234 54.1533 62.8834 54.5C64.0101 52.2467 65.2234 50.1667 66.5234 48.26C67.9101 46.3533 69.3401 44.4467 70.8134 42.54C71.3334 42.28 71.8534 42.28 72.3734 42.54L73.9334 43.32C74.6268 43.7533 75.3201 44.1433 76.0134 44.49C76.7068 44.8367 77.4001 45.2267 78.0934 45.66C79.1334 46.18 79.9568 46.8733 80.5634 47.74C81.1701 48.6067 81.2134 49.4733 80.6934 50.34C79.6534 49.9933 78.7001 49.5167 77.8334 48.91C76.9668 48.2167 75.9701 47.74 74.8434 47.48C73.3701 48.6067 72.1134 49.9067 71.0734 51.38C68.9934 54.1533 67.5201 57.1 66.6534 60.22C65.9601 62.3 65.2668 64.38 64.5734 66.46C63.9668 68.54 63.3168 70.62 62.6234 72.7C62.2768 73.8267 62.1034 75.1267 62.1034 76.6C62.2768 77.9 62.2334 79.2 61.9734 80.5C61.7134 81.8 61.4534 83.0567 61.1934 84.27C61.0201 84.9633 60.8468 85.44 60.6734 85.7C60.5001 85.96 60.1534 86.4367 59.6334 87.13C58.9401 87.13 58.2901 86.9567 57.6834 86.61C57.1634 86.2633 56.6001 86.0033 55.9934 85.83C54.6934 85.3967 53.4801 84.8333 52.3534 84.14C51.4868 82.9267 50.9234 81.4967 50.6634 79.85C50.3168 77.3367 50.1001 74.91 50.0134 72.57C49.9268 70.1433 49.9268 67.6733 50.0134 65.16C50.1001 63.5133 50.2734 61.91 50.5334 60.35C50.7934 58.7033 51.0534 57.1 51.3134 55.54C51.5734 53.8067 51.8334 52.16 52.0934 50.6C52.4401 48.9533 52.7868 47.2633 53.1334 45.53C53.3068 45.01 53.4368 44.49 53.5234 43.97C53.6101 43.45 53.7401 42.93 53.9134 42.41C53.9134 42.2367 53.9568 42.1067 54.0434 42.02C54.1301 41.8467 54.2168 41.6733 54.3034 41.5ZM95.2514 39.03C96.9847 39.29 98.4147 39.9833 99.5414 41.11C99.9747 41.5433 100.451 41.9333 100.971 42.28C101.491 42.6267 101.968 43.0167 102.401 43.45C102.661 45.0967 102.661 46.7 102.401 48.26C101.968 50.6 101.448 52.94 100.841 55.28C100.061 58.0533 98.5014 60.22 96.1614 61.78C95.0347 62.56 93.9081 63.2967 92.7814 63.99C91.6547 64.6833 90.4847 65.2467 89.2714 65.68C89.1847 65.68 89.0114 65.81 88.7514 66.07C87.9714 68.93 87.4514 71.8333 87.1914 74.78C86.9314 77.7267 87.3214 80.7167 88.3614 83.75C89.3147 83.5767 90.1814 83.36 90.9614 83.1C91.8281 82.7533 92.6081 82.19 93.3014 81.41C94.4281 80.11 95.5547 78.8533 96.6814 77.64C97.8947 76.34 99.0647 74.9967 100.191 73.61C101.405 72.1367 102.661 70.4033 103.961 68.41C105.348 66.4167 106.431 64.5533 107.211 62.82C107.558 62.56 107.948 62.6033 108.381 62.95C108.901 63.3833 109.421 63.86 109.941 64.38C110.461 64.8133 111.025 65.29 111.631 65.81C111.631 65.8967 111.545 66.1567 111.371 66.59C110.591 67.8033 109.595 69.2333 108.381 70.88C107.255 72.44 106.301 73.8267 105.521 75.04C104.828 75.9933 104.091 76.9467 103.311 77.9C102.618 78.8533 101.881 79.7633 101.101 80.63C100.495 81.3233 99.9314 81.9733 99.4114 82.58C98.9781 83.1867 98.5014 83.8367 97.9814 84.53C96.8547 85.9167 95.6847 86.9567 94.4714 87.65C92.2181 88.8633 90.0947 88.7333 88.1014 87.26C87.1481 86.5667 86.1514 85.8733 85.1114 85.18C84.1581 84.4867 83.2047 83.7933 82.2514 83.1C81.8181 82.6667 81.3847 82.2333 80.9514 81.8C80.6047 81.28 80.2147 80.76 79.7814 80.24C78.1347 77.9 77.0081 75.5167 76.4014 73.09C76.2281 72.2233 76.1414 71.3567 76.1414 70.49C76.0547 69.6233 76.0981 68.7567 76.2714 67.89C76.7047 64.25 77.6581 60.9133 79.1314 57.88C79.6514 56.84 80.1714 55.8 80.6914 54.76C81.2114 53.72 81.7747 52.7233 82.3814 51.77C83.0747 50.6433 83.7681 49.56 84.4614 48.52C85.2414 47.48 85.9781 46.44 86.6714 45.4C88.5781 42.8 90.8747 40.8933 93.5614 39.68C94.1681 39.42 94.7314 39.2033 95.2514 39.03ZM90.1814 61C91.0481 60.5667 91.7414 60.1767 92.2614 59.83C92.8681 59.3967 93.4314 58.9633 93.9514 58.53C95.3381 57.5767 96.3781 56.1467 97.0714 54.24C97.5047 53.2867 97.8081 52.3333 97.9814 51.38C98.1547 50.4267 98.3281 49.4733 98.5014 48.52C98.5881 47.9133 98.6314 47.35 98.6314 46.83C98.7181 46.2233 98.6747 45.6167 98.5014 45.01C97.1147 45.8767 95.9447 47.1767 94.9914 48.91C94.0381 50.8167 93.2147 52.7667 92.5214 54.76C91.9147 56.7533 91.1347 58.8333 90.1814 61ZM124.958 39.03C126.692 39.29 128.122 39.9833 129.248 41.11C129.682 41.5433 130.158 41.9333 130.678 42.28C131.198 42.6267 131.675 43.0167 132.108 43.45C132.368 45.0967 132.368 46.7 132.108 48.26C131.675 50.6 131.155 52.94 130.548 55.28C129.768 58.0533 128.208 60.22 125.868 61.78C124.742 62.56 123.615 63.2967 122.488 63.99C121.362 64.6833 120.192 65.2467 118.978 65.68C118.892 65.68 118.718 65.81 118.458 66.07C117.678 68.93 117.158 71.8333 116.898 74.78C116.638 77.7267 117.028 80.7167 118.068 83.75C119.022 83.5767 119.888 83.36 120.668 83.1C121.535 82.7533 122.315 82.19 123.008 81.41C124.135 80.11 125.262 78.8533 126.388 77.64C127.602 76.34 128.772 74.9967 129.898 73.61C131.112 72.1367 132.368 70.4033 133.668 68.41C135.055 66.4167 136.138 64.5533 136.918 62.82C137.265 62.56 137.655 62.6033 138.088 62.95C138.608 63.3833 139.128 63.86 139.648 64.38C140.168 64.8133 140.732 65.29 141.338 65.81C141.338 65.8967 141.252 66.1567 141.078 66.59C140.298 67.8033 139.302 69.2333 138.088 70.88C136.962 72.44 136.008 73.8267 135.228 75.04C134.535 75.9933 133.798 76.9467 133.018 77.9C132.325 78.8533 131.588 79.7633 130.808 80.63C130.202 81.3233 129.638 81.9733 129.118 82.58C128.685 83.1867 128.208 83.8367 127.688 84.53C126.562 85.9167 125.392 86.9567 124.178 87.65C121.925 88.8633 119.802 88.7333 117.808 87.26C116.855 86.5667 115.858 85.8733 114.818 85.18C113.865 84.4867 112.912 83.7933 111.958 83.1C111.525 82.6667 111.092 82.2333 110.658 81.8C110.312 81.28 109.922 80.76 109.488 80.24C107.842 77.9 106.715 75.5167 106.108 73.09C105.935 72.2233 105.848 71.3567 105.848 70.49C105.762 69.6233 105.805 68.7567 105.978 67.89C106.412 64.25 107.365 60.9133 108.838 57.88C109.358 56.84 109.878 55.8 110.398 54.76C110.918 53.72 111.482 52.7233 112.088 51.77C112.782 50.6433 113.475 49.56 114.168 48.52C114.948 47.48 115.685 46.44 116.378 45.4C118.285 42.8 120.582 40.8933 123.268 39.68C123.875 39.42 124.438 39.2033 124.958 39.03ZM119.888 61C120.755 60.5667 121.448 60.1767 121.968 59.83C122.575 59.3967 123.138 58.9633 123.658 58.53C125.045 57.5767 126.085 56.1467 126.778 54.24C127.212 53.2867 127.515 52.3333 127.688 51.38C127.862 50.4267 128.035 49.4733 128.208 48.52C128.295 47.9133 128.338 47.35 128.338 46.83C128.425 46.2233 128.382 45.6167 128.208 45.01C126.822 45.8767 125.652 47.1767 124.698 48.91C123.745 50.8167 122.922 52.7667 122.228 54.76C121.622 56.7533 120.842 58.8333 119.888 61ZM158.435 58.92C158.175 58.92 158.002 59.05 157.915 59.31C157.915 59.4833 157.872 59.6567 157.785 59.83C156.139 62.8633 154.665 65.94 153.365 69.06C152.152 72.18 151.025 75.3433 149.985 78.55C149.465 80.1967 148.859 81.8 148.165 83.36C147.472 84.92 146.779 86.48 146.085 88.04C145.999 88.2133 145.912 88.3433 145.825 88.43C145.739 88.6033 145.609 88.7767 145.435 88.95C145.262 88.8633 145.045 88.82 144.785 88.82C144.612 88.82 144.439 88.7767 144.265 88.69C144.005 88.5167 143.745 88.3867 143.485 88.3C143.312 88.2133 143.139 88.1267 142.965 88.04C140.625 87.1733 139.109 85.44 138.415 82.84C138.155 81.8867 137.852 80.9333 137.505 79.98C137.245 79.0267 136.942 78.0733 136.595 77.12C136.249 76.08 136.075 74.91 136.075 73.61C136.075 71.6167 136.162 69.6667 136.335 67.76C136.509 65.7667 136.682 63.7733 136.855 61.78C137.289 59.0067 137.765 56.32 138.285 53.72C138.892 51.0333 139.499 48.3467 140.105 45.66C140.279 45.14 140.409 44.62 140.495 44.1C140.669 43.4933 140.842 42.8867 141.015 42.28C141.102 42.02 141.189 41.76 141.275 41.5C141.362 41.1533 141.449 40.85 141.535 40.59C142.055 40.2433 142.575 40.2433 143.095 40.59C143.789 41.0233 144.439 41.4567 145.045 41.89C145.739 42.3233 146.432 42.7567 147.125 43.19C147.299 43.3633 147.472 43.58 147.645 43.84C147.905 44.1 148.122 44.3167 148.295 44.49C148.382 46.05 148.382 47.5667 148.295 49.04C148.209 49.6467 148.122 50.2533 148.035 50.86C148.035 51.4667 148.035 52.0733 148.035 52.68C147.862 54.24 147.689 55.8 147.515 57.36C147.429 58.92 147.429 60.5233 147.515 62.17V66.59C147.602 67.11 147.645 67.63 147.645 68.15C147.732 68.5833 147.819 69.06 147.905 69.58C148.252 69.58 148.425 69.4933 148.425 69.32C148.512 69.1467 148.599 68.9733 148.685 68.8C149.292 67.6733 149.812 66.5467 150.245 65.42C150.765 64.2933 151.329 63.1667 151.935 62.04C152.975 59.8733 154.059 57.7067 155.185 55.54C155.619 54.6733 156.052 53.85 156.485 53.07C157.005 52.29 157.482 51.4667 157.915 50.6C158.349 49.82 158.695 49.0833 158.955 48.39C159.302 47.61 159.692 46.8733 160.125 46.18C160.559 45.4 160.992 44.62 161.425 43.84C161.859 43.06 162.292 42.28 162.725 41.5C162.812 41.3267 162.899 41.1967 162.985 41.11C163.159 40.9367 163.332 40.7633 163.505 40.59C164.199 40.7633 164.762 41.0667 165.195 41.5C165.629 41.9333 166.105 42.28 166.625 42.54C167.145 42.8867 167.622 43.2333 168.055 43.58C168.575 43.84 169.052 44.1 169.485 44.36C170.092 45.3133 170.395 46.3967 170.395 47.61C170.395 48.8233 170.395 49.9933 170.395 51.12C170.482 52.2467 170.439 53.3733 170.265 54.5C170.179 55.54 170.092 56.58 170.005 57.62C170.005 58.66 169.919 59.7 169.745 60.74C169.572 61.6933 169.485 62.6467 169.485 63.6C169.485 64.5533 169.485 65.5067 169.485 66.46C169.399 67.5 169.355 68.54 169.355 69.58C169.355 70.62 169.269 71.66 169.095 72.7C169.009 74.6067 169.009 76.6 169.095 78.68C169.095 78.94 169.139 79.2 169.225 79.46C169.312 79.72 169.399 80.0233 169.485 80.37C170.265 80.11 170.872 79.6333 171.305 78.94C172.259 77.9867 173.255 76.8167 174.295 75.43C175.335 74.0433 176.202 72.7433 176.895 71.53C177.155 70.9233 177.502 70.36 177.935 69.84C178.715 68.6267 179.452 67.4567 180.145 66.33C180.839 65.1167 181.445 63.8167 181.965 62.43C182.399 62.43 182.745 62.56 183.005 62.82C183.352 62.9933 183.655 63.21 183.915 63.47C184.782 64.3367 185.822 65.03 187.035 65.55C187.122 65.7233 187.165 65.8967 187.165 66.07C187.165 66.1567 187.209 66.2867 187.295 66.46C186.602 67.6733 185.952 68.93 185.345 70.23C184.825 71.4433 184.262 72.6567 183.655 73.87C183.222 74.5633 182.659 75.4733 181.965 76.6C181.359 77.64 180.839 78.55 180.405 79.33C178.932 82.1033 176.982 84.53 174.555 86.61C173.949 87.13 173.385 87.65 172.865 88.17C172.345 88.7767 171.825 89.2967 171.305 89.73C170.612 90.0767 170.005 90.0333 169.485 89.6C167.752 88.4733 166.062 87.39 164.415 86.35C162.855 85.2233 161.252 84.0533 159.605 82.84C157.265 81.1933 156.095 79.0267 156.095 76.34C155.922 74.9533 155.965 73.6967 156.225 72.57C156.312 72.4833 156.355 72.3533 156.355 72.18C156.442 70.1867 156.659 68.2367 157.005 66.33C157.439 64.4233 157.872 62.5167 158.305 60.61C158.392 60.35 158.435 60.09 158.435 59.83C158.435 59.4833 158.435 59.18 158.435 58.92C158.782 58.8333 158.825 58.53 158.565 58.01C158.565 58.4433 158.522 58.7467 158.435 58.92ZM258.234 92.85C258.754 92.6767 259.187 92.4167 259.534 92.07C259.967 91.81 260.444 91.68 260.964 91.68C261.744 92.5467 262.177 93.4567 262.264 94.41C262.437 94.8433 262.567 95.2767 262.654 95.71C262.827 96.1433 262.957 96.5767 263.044 97.01C263.13 97.4433 263.304 97.8333 263.564 98.18C263.91 98.5267 263.997 98.96 263.824 99.48C263.824 99.6533 263.867 99.8267 263.954 100C264.127 100.26 264.3 100.477 264.474 100.65C264.907 101.343 265.167 102.08 265.254 102.86C265.34 103.727 265.427 104.593 265.514 105.46C264.82 105.807 264.344 106.067 264.084 106.24C263.564 106.067 263.044 105.85 262.524 105.59C262.09 105.417 261.657 105.243 261.224 105.07C260.704 104.897 260.184 104.767 259.664 104.68C259.231 104.68 258.754 104.593 258.234 104.42C256.847 104.16 255.46 103.9 254.074 103.64C252.774 103.38 251.43 103.163 250.044 102.99C247.53 102.73 245.06 102.47 242.634 102.21C240.207 101.95 237.78 101.777 235.354 101.69C232.147 101.517 228.984 101.343 225.864 101.17C222.744 101.083 219.58 100.953 216.374 100.78C215.94 100.78 215.55 100.78 215.204 100.78C214.944 100.867 214.597 100.867 214.164 100.78C213.904 100.867 213.557 100.91 213.124 100.91C211.39 100.823 209.657 100.823 207.924 100.91C206.19 100.997 204.457 101.04 202.724 101.04C202.03 100.953 201.38 100.953 200.774 101.04C200.167 101.127 199.517 101.17 198.824 101.17C198.13 101.257 197.48 101.3 196.874 101.3C196.354 101.3 195.747 101.343 195.054 101.43C194.62 101.43 194.404 101.43 194.404 101.43C193.104 101.43 191.804 101.43 190.504 101.43C189.204 101.43 187.904 101.517 186.604 101.69C185.39 101.863 184.22 101.907 183.094 101.82C181.967 101.82 180.797 101.95 179.584 102.21H178.674C177.46 102.21 176.247 102.253 175.034 102.34C173.734 102.427 172.477 102.557 171.264 102.73C170.57 102.817 169.877 102.86 169.184 102.86C168.49 102.86 167.797 102.947 167.104 103.12C166.064 103.12 165.067 103.12 164.114 103.12C163.074 103.207 162.077 103.293 161.124 103.38C160.257 103.38 159.39 103.423 158.524 103.51C157.657 103.683 156.747 103.813 155.794 103.9C155.1 103.987 154.407 104.03 153.714 104.03C153.02 104.117 152.327 104.16 151.634 104.16C149.554 104.333 147.474 104.55 145.394 104.81C143.314 105.07 141.234 105.287 139.154 105.46C136.9 105.807 134.69 106.067 132.524 106.24C130.27 106.5 128.017 106.76 125.764 107.02C123.77 107.28 121.82 107.583 119.914 107.93C117.92 108.277 115.927 108.537 113.934 108.71C112.46 108.883 110.987 109.057 109.514 109.23C108.04 109.49 106.567 109.577 105.094 109.49C104.834 109.403 104.574 109.403 104.314 109.49C103.967 109.577 103.62 109.62 103.274 109.62C102.84 109.1 102.364 108.537 101.844 107.93C101.324 107.41 100.89 106.803 100.544 106.11C100.63 105.937 100.674 105.807 100.674 105.72C100.674 105.633 100.717 105.503 100.804 105.33C101.237 105.243 101.67 105.2 102.104 105.2C102.537 105.2 102.97 105.157 103.404 105.07C106.09 104.81 108.734 104.42 111.334 103.9C113.934 103.38 116.577 102.903 119.264 102.47C121.95 101.95 124.68 101.473 127.454 101.04C130.14 100.693 132.87 100.347 135.644 100C137.55 99.6533 139.457 99.35 141.364 99.09C143.27 98.83 145.22 98.57 147.214 98.31C148.427 98.1367 149.684 97.9633 150.984 97.79C152.197 97.7033 153.41 97.5733 154.624 97.4C155.837 97.2267 157.094 97.0967 158.394 97.01C159.694 97.01 160.95 96.9233 162.164 96.75C162.857 96.5767 163.637 96.4467 164.504 96.36C165.284 96.36 166.02 96.2733 166.714 96.1C167.667 96.0133 168.664 95.9267 169.704 95.84C170.657 95.84 171.61 95.7533 172.564 95.58C173.344 95.4933 174.124 95.45 174.904 95.45C175.597 95.45 176.334 95.3633 177.114 95.19C178.847 95.0167 180.58 94.8433 182.314 94.67C184.134 94.5833 185.954 94.4967 187.774 94.41C188.727 94.2367 189.637 94.15 190.504 94.15C191.37 94.15 192.28 94.1067 193.234 94.02C194.187 93.9333 195.14 93.8467 196.094 93.76C197.134 93.6733 198.13 93.5433 199.084 93.37C199.777 93.37 200.47 93.3267 201.164 93.24C201.857 93.24 202.55 93.24 203.244 93.24C204.457 93.1533 205.584 93.0667 206.624 92.98C207.75 92.98 208.877 92.98 210.004 92.98C211.39 92.8933 212.777 92.8067 214.164 92.72C215.55 92.6333 216.937 92.5467 218.324 92.46H218.714C220.36 92.3733 221.964 92.33 223.524 92.33C225.084 92.4167 226.644 92.46 228.204 92.46C230.89 92.46 233.534 92.4167 236.134 92.33C238.82 92.33 241.507 92.4167 244.194 92.59C244.974 92.6767 245.754 92.72 246.534 92.72C247.314 92.8067 248.094 92.85 248.874 92.85C250.434 93.0233 251.994 93.0667 253.554 92.98C255.2 92.8933 256.76 92.85 258.234 92.85ZM187.514 34.61C187.167 34.4367 186.82 34.2633 186.474 34.09C186.127 33.9167 185.78 33.7433 185.434 33.57C185.087 33.31 184.784 33.0067 184.524 32.66C184.264 31.4467 184.177 30.2767 184.264 29.15C184.437 27.9367 184.74 26.7233 185.174 25.51C185.694 23.69 186.387 21.9567 187.254 20.31C188.207 18.6633 189.247 17.06 190.374 15.5C191.934 13.2467 193.667 11.2967 195.574 9.65C197.567 7.91666 199.69 6.35666 201.944 4.96999C204.717 3.32333 207.837 2.24 211.304 1.72C211.477 1.72 211.65 1.72 211.824 1.72C212.084 1.63333 212.3 1.59 212.474 1.59C213.86 1.15666 215.117 1.15666 216.244 1.59C217.37 2.02333 218.454 2.58666 219.494 3.27999C219.84 3.45333 220.144 3.67 220.404 3.92999C220.664 4.18999 220.967 4.45 221.314 4.71C222.874 6.18333 224.39 7.69999 225.864 9.25999C228.897 12.4667 230.154 16.15 229.634 20.31C229.46 21.61 229.2 22.8667 228.854 24.08C228.507 25.2933 228.074 26.5067 227.554 27.72C226.687 29.4533 225.777 31.1867 224.824 32.92C223.957 34.5667 223.004 36.17 221.964 37.73C221.79 37.9033 221.66 38.0767 221.574 38.25C221.574 38.4233 221.487 38.5967 221.314 38.77C221.574 39.03 221.704 39.16 221.704 39.16C223.437 39.2467 224.954 40.0267 226.254 41.5C226.947 42.1933 227.64 42.8867 228.334 43.58C229.027 44.1867 229.72 44.8367 230.414 45.53C231.28 46.57 232.19 47.74 233.144 49.04C234.01 50.4267 234.53 52.0733 234.704 53.98C234.79 56.58 234.79 59.1367 234.704 61.65C234.704 62.3433 234.617 62.9933 234.444 63.6C234.357 64.12 234.27 64.7267 234.184 65.42C233.23 70.5333 231.28 75.2133 228.334 79.46C227.38 80.76 226.384 82.0167 225.344 83.23C224.304 84.3567 223.177 85.44 221.964 86.48C220.924 87.4333 219.754 88.17 218.454 88.69C217.24 89.21 215.984 89.6433 214.684 89.99C213.817 90.25 212.95 90.4667 212.084 90.64C211.304 90.9 210.48 91.2033 209.614 91.55C208.66 91.8967 207.664 92.1567 206.624 92.33C205.584 92.59 204.544 92.6767 203.504 92.59C201.51 92.4167 199.604 91.9833 197.784 91.29C195.964 90.6833 194.274 89.6433 192.714 88.17L186.864 83.1C185.91 82.4067 185.087 81.5833 184.394 80.63C183.7 79.6767 183.094 78.7233 182.574 77.77C181.62 75.95 181.707 74.13 182.834 72.31C183.267 71.79 183.657 71.3133 184.004 70.88C184.437 70.36 184.957 69.97 185.564 69.71C186.084 69.8833 186.517 70.1433 186.864 70.49C187.297 70.8367 187.687 71.2267 188.034 71.66C188.467 72.0933 188.857 72.5267 189.204 72.96C189.55 73.3933 190.027 73.6967 190.634 73.87C190.98 74.0433 191.24 74.3033 191.414 74.65C191.674 74.91 191.977 75.17 192.324 75.43C191.977 76.0367 191.63 76.6 191.284 77.12C191.024 77.5533 190.72 78.03 190.374 78.55C190.2 79.2433 190.114 79.98 190.114 80.76C190.2 81.4533 190.46 82.1467 190.894 82.84C191.587 83.2733 192.324 83.5333 193.104 83.62C193.884 83.7067 194.664 83.8367 195.444 84.01C195.617 83.9233 195.747 83.88 195.834 83.88C195.92 83.7933 196.05 83.6633 196.224 83.49C196.224 83.0567 196.224 82.6667 196.224 82.32C196.31 81.9733 196.354 81.5833 196.354 81.15C196.267 80.11 196.18 79.1133 196.094 78.16C196.094 77.12 196.05 76.1233 195.964 75.17C195.964 74.39 195.92 73.6533 195.834 72.96C195.834 72.18 195.877 71.4 195.964 70.62C196.137 69.1467 196.224 67.7167 196.224 66.33C196.224 64.8567 196.267 63.3833 196.354 61.91C196.44 59.3967 196.484 56.9267 196.484 54.5C196.57 51.9867 196.7 49.4733 196.874 46.96C197.047 44.9667 197.22 43.0167 197.394 41.11C197.567 39.1167 197.74 37.1233 197.914 35.13C198.087 33.57 198.304 32.01 198.564 30.45C198.824 28.89 199.084 27.33 199.344 25.77C199.43 25.1633 199.647 24.5567 199.994 23.95C200.08 23.7767 200.297 23.5167 200.644 23.17C201.51 23.5167 202.29 23.9067 202.984 24.34C203.677 24.7733 204.37 25.2067 205.064 25.64C205.324 26.5933 205.41 27.5467 205.324 28.5C205.237 29.4533 205.107 30.4067 204.934 31.36C204.76 32.8333 204.674 34.3067 204.674 35.78C204.76 37.1667 204.76 38.5967 204.674 40.07C204.847 39.9833 204.977 39.9833 205.064 40.07C205.15 40.07 205.237 40.0267 205.324 39.94C207.404 37.86 209.31 35.6933 211.044 33.44C212.864 31.1867 214.467 28.76 215.854 26.16C216.2 25.4667 216.547 24.86 216.894 24.34C217.24 23.7333 217.587 23.0833 217.934 22.39C218.887 20.6567 219.71 18.5767 220.404 16.15C220.577 15.4567 220.707 14.7633 220.794 14.07C220.88 13.29 221.01 12.51 221.184 11.73C221.27 11.21 221.227 10.69 221.054 10.17C220.88 9.65 220.707 9.13 220.534 8.60999C220.187 8.43666 219.884 8.35 219.624 8.35C217.977 8.17666 216.46 8.21999 215.074 8.48C214.554 8.65333 213.99 8.73999 213.384 8.73999C212.864 8.73999 212.3 8.82666 211.694 9C209.7 9.43333 207.794 10.1267 205.974 11.08C204.154 11.9467 202.42 12.9867 200.774 14.2C196.267 17.32 192.67 21.5233 189.984 26.81C189.377 27.85 188.9 28.9333 188.554 30.06C188.294 31.1867 188.077 32.3567 187.904 33.57C187.904 33.7433 187.86 33.8733 187.774 33.96C187.774 34.0467 187.774 34.1767 187.774 34.35C187.774 34.35 187.687 34.4367 187.514 34.61ZM204.804 51.9C204.804 53.5467 204.76 55.15 204.674 56.71C204.674 58.27 204.76 59.83 204.934 61.39C205.02 62.3433 205.064 63.2533 205.064 64.12C205.15 64.9867 205.194 65.8967 205.194 66.85C205.194 69.1033 205.237 71.3133 205.324 73.48C205.497 75.56 205.67 77.6833 205.844 79.85C205.844 79.9367 205.93 80.1533 206.104 80.5C206.19 80.5 206.234 80.5433 206.234 80.63C206.32 80.63 206.407 80.63 206.494 80.63C207.88 80.1967 209.137 79.6333 210.264 78.94C211.477 78.16 212.56 77.2067 213.514 76.08C213.86 75.6467 214.164 75.2133 214.424 74.78C214.77 74.3467 215.16 73.9133 215.594 73.48C217.674 71.0533 219.494 68.4967 221.054 65.81C222.7 63.0367 223.914 60.09 224.694 56.97C224.78 56.7967 224.824 56.6233 224.824 56.45C224.91 56.2767 224.997 56.1033 225.084 55.93C225.69 54.2833 226.037 52.6367 226.124 50.99C226.297 49.3433 226.384 47.6533 226.384 45.92C226.384 45.7467 226.34 45.5733 226.254 45.4C226.167 45.14 226.08 44.9233 225.994 44.75C222.094 44.49 218.41 45.01 214.944 46.31C214.424 46.83 213.904 47.3933 213.384 48C212.864 48.52 212.3 49.04 211.694 49.56C211.174 50.08 210.61 50.6433 210.004 51.25C209.484 51.77 208.877 52.2467 208.184 52.68C207.837 52.42 207.534 52.16 207.274 51.9C207.014 51.64 206.754 51.4233 206.494 51.25C206.407 51.1633 206.19 51.12 205.844 51.12C205.67 51.2067 205.497 51.3367 205.324 51.51C205.237 51.5967 205.064 51.7267 204.804 51.9ZM263.562 16.8C263.475 16.9733 263.432 17.19 263.432 17.45C263.432 17.6233 263.388 17.7967 263.302 17.97C262.695 19.1833 262.175 20.44 261.742 21.74C261.308 22.9533 260.875 24.1667 260.442 25.38C260.095 26.3333 259.792 27.2433 259.532 28.11C259.272 28.9767 258.925 29.8867 258.492 30.84C258.232 31.4467 257.928 32.0533 257.582 32.66C257.322 33.2667 256.932 33.7867 256.412 34.22C255.632 34.22 254.895 34.0467 254.202 33.7C253.595 33.3533 252.945 33.0933 252.252 32.92C251.818 32.7467 251.428 32.6167 251.082 32.53C250.735 32.3567 250.432 32.0533 250.172 31.62C250.432 30.32 250.648 29.02 250.822 27.72C251.082 26.42 251.385 25.12 251.732 23.82C251.992 22.3467 252.208 20.9167 252.382 19.53C252.642 18.1433 252.858 16.7133 253.032 15.24C253.118 14.5467 253.205 14.1133 253.292 13.94C253.378 13.68 253.682 13.2033 254.202 12.51C255.242 12.5967 256.238 12.9433 257.192 13.55C257.625 13.81 258.015 14.07 258.362 14.33C258.708 14.59 259.098 14.8067 259.532 14.98C259.705 15.0667 259.878 15.1533 260.052 15.24C260.225 15.3267 260.398 15.37 260.572 15.37C261.178 15.4567 261.698 15.63 262.132 15.89C262.565 16.15 263.042 16.4533 263.562 16.8ZM248.612 41.5C249.218 41.4133 249.652 41.4567 249.912 41.63C250.258 41.8033 250.648 41.9767 251.082 42.15C251.428 42.3233 251.775 42.4967 252.122 42.67C252.468 42.7567 252.858 42.8867 253.292 43.06C253.552 43.06 253.812 43.1467 254.072 43.32C254.332 43.4933 254.592 43.6667 254.852 43.84C254.852 44.2733 254.852 44.6633 254.852 45.01C254.938 45.27 254.938 45.5733 254.852 45.92C254.765 46.6133 254.678 47.3067 254.592 48C254.592 48.6933 254.505 49.3867 254.332 50.08C254.158 51.2933 254.028 52.5067 253.942 53.72C253.942 54.9333 253.942 56.1467 253.942 57.36C253.768 61.1733 253.638 64.9433 253.552 68.67C253.552 72.3967 253.508 76.1667 253.422 79.98C253.422 80.4133 253.378 80.8033 253.292 81.15C253.292 81.4967 253.335 81.8433 253.422 82.19C253.422 82.3633 253.422 82.5367 253.422 82.71C253.508 82.8833 253.552 83.0567 253.552 83.23C254.332 82.97 254.982 82.6233 255.502 82.19C256.022 81.67 256.498 81.1067 256.932 80.5C257.278 80.1533 257.538 79.8067 257.712 79.46C257.972 79.1133 258.232 78.7233 258.492 78.29C258.925 77.5967 259.358 76.9467 259.792 76.34C260.225 75.6467 260.658 74.9533 261.092 74.26C262.305 72.7 263.475 70.9667 264.602 69.06C265.728 67.1533 266.638 65.2467 267.332 63.34C267.505 62.9933 267.678 62.69 267.852 62.43C268.545 62.7767 269.238 63.08 269.932 63.34C270.712 63.6 271.448 63.9033 272.142 64.25C272.315 64.4233 272.358 64.5967 272.272 64.77C272.185 64.8567 272.098 64.9867 272.012 65.16C271.578 66.1133 271.058 67.11 270.452 68.15C269.932 69.19 269.455 70.1867 269.022 71.14C268.588 71.92 268.155 72.7 267.722 73.48C267.288 74.26 266.855 75.0833 266.422 75.95C265.728 77.0767 265.078 78.2033 264.472 79.33C263.865 80.37 263.258 81.4533 262.652 82.58C262.132 83.4467 261.568 84.27 260.962 85.05C260.355 85.7433 259.488 86.3067 258.362 86.74C258.188 86.8267 257.668 86.9567 256.802 87.13C255.675 87.39 254.592 87.3467 253.552 87C252.338 86.5667 251.082 86.1333 249.782 85.7C248.568 85.2667 247.355 84.8333 246.142 84.4C244.235 83.7067 242.805 82.71 241.852 81.41C240.898 80.0233 240.292 78.42 240.032 76.6C239.772 73.9133 239.902 71.1833 240.422 68.41C240.768 65.8967 241.202 63.47 241.722 61.13C242.242 58.7033 242.848 56.2767 243.542 53.85C244.062 51.8567 244.712 49.9067 245.492 48C246.272 46.0933 247.138 44.1867 248.092 42.28C248.178 42.1067 248.265 41.9767 248.352 41.89C248.438 41.8033 248.525 41.6733 248.612 41.5ZM266.571 39.94H270.731C271.078 39.42 271.294 39.03 271.381 38.77C271.988 36.17 272.594 33.6133 273.201 31.1C273.894 28.5 274.631 25.9433 275.411 23.43C275.758 22.3033 276.061 21.22 276.321 20.18C276.668 19.14 277.014 18.1 277.361 17.06C277.621 16.4533 278.011 15.9767 278.531 15.63C278.704 15.7167 278.834 15.76 278.921 15.76C279.094 15.76 279.268 15.8467 279.441 16.02C280.134 16.3667 280.784 16.7133 281.391 17.06C281.998 17.4067 282.648 17.7533 283.341 18.1C283.428 18.1867 283.471 18.2733 283.471 18.36C283.471 18.36 283.558 18.4467 283.731 18.62C283.731 18.7933 283.731 19.01 283.731 19.27C283.818 19.4433 283.818 19.6167 283.731 19.79C283.471 21.2633 283.211 22.78 282.951 24.34C282.691 25.9 282.474 27.46 282.301 29.02C282.128 30.4933 281.911 31.9233 281.651 33.31C281.391 34.6967 281.174 36.1267 281.001 37.6C280.914 38.0333 280.871 38.6833 280.871 39.55C281.044 39.8967 281.434 39.9833 282.041 39.81C282.301 39.81 282.691 39.7233 283.211 39.55C283.471 39.6367 283.731 39.7233 283.991 39.81C284.338 39.8967 284.641 39.9833 284.901 40.07C285.161 40.5033 285.421 40.8933 285.681 41.24C286.028 41.5 286.288 41.8467 286.461 42.28C286.634 42.8 286.764 43.3633 286.851 43.97C287.024 44.49 287.198 45.0533 287.371 45.66C287.371 45.66 287.284 45.8333 287.111 46.18C285.811 46.44 284.598 46.5267 283.471 46.44C282.431 46.3533 281.261 46.2233 279.961 46.05C279.788 46.4833 279.658 46.96 279.571 47.48C279.571 47.9133 279.528 48.3467 279.441 48.78C279.354 49.9933 279.268 51.25 279.181 52.55C279.181 53.7633 279.094 54.9767 278.921 56.19C278.834 59.1367 278.704 62.0833 278.531 65.03C278.358 67.9767 278.314 70.9233 278.401 73.87C278.401 74.7367 278.444 75.3867 278.531 75.82C278.791 77.0333 278.921 78.2033 278.921 79.33C278.921 80.4567 279.181 81.5833 279.701 82.71C279.874 82.8833 280.091 82.9267 280.351 82.84C281.218 82.58 281.868 82.1033 282.301 81.41C282.474 81.15 282.604 80.9333 282.691 80.76C282.864 80.5 283.038 80.24 283.211 79.98C284.251 78.2467 285.334 76.6 286.461 75.04C287.588 73.48 288.628 71.8333 289.581 70.1C289.668 69.9267 289.754 69.7533 289.841 69.58C289.928 69.4067 290.058 69.2333 290.231 69.06C290.838 68.1933 291.531 67.11 292.311 65.81C293.178 64.4233 293.914 63.2967 294.521 62.43C294.954 62.2567 295.301 62.3 295.561 62.56C295.908 62.7333 296.254 62.9067 296.601 63.08C296.948 63.2533 297.251 63.3833 297.511 63.47C297.771 63.5567 298.031 63.6433 298.291 63.73C298.638 64.3367 298.638 65.03 298.291 65.81C297.771 67.1967 297.121 68.8867 296.341 70.88C295.648 72.7867 294.954 74.39 294.261 75.69C293.568 76.99 292.831 78.29 292.051 79.59C291.358 80.89 290.664 82.2333 289.971 83.62C289.018 85.44 287.544 86.6967 285.551 87.39H283.341C282.734 87.4767 282.171 87.4333 281.651 87.26C281.218 87.1733 280.741 87.0433 280.221 86.87C279.528 86.5233 278.791 86.2633 278.011 86.09C277.318 85.83 276.624 85.57 275.931 85.31C273.244 84.4433 271.164 82.6667 269.691 79.98C269.258 79.2867 268.954 78.5933 268.781 77.9C268.694 77.12 268.564 76.3833 268.391 75.69C267.871 73.0033 267.698 70.3167 267.871 67.63C267.958 64.9433 268.001 62.2567 268.001 59.57C268.261 58.0967 268.434 56.58 268.521 55.02C268.608 53.46 268.824 51.9433 269.171 50.47C269.344 49.6033 269.474 48.7367 269.561 47.87C269.648 47.0033 269.778 46.1367 269.951 45.27C269.518 44.9233 268.998 44.7067 268.391 44.62C267.871 44.4467 267.524 44.0133 267.351 43.32C267.178 42.8 266.961 42.28 266.701 41.76C266.354 41.24 266.311 40.6333 266.571 39.94ZM312.341 39.03C314.075 39.29 315.505 39.9833 316.631 41.11C317.065 41.5433 317.541 41.9333 318.061 42.28C318.581 42.6267 319.058 43.0167 319.491 43.45C319.751 45.0967 319.751 46.7 319.491 48.26C319.058 50.6 318.538 52.94 317.931 55.28C317.151 58.0533 315.591 60.22 313.251 61.78C312.125 62.56 310.998 63.2967 309.871 63.99C308.745 64.6833 307.575 65.2467 306.361 65.68C306.275 65.68 306.101 65.81 305.841 66.07C305.061 68.93 304.541 71.8333 304.281 74.78C304.021 77.7267 304.411 80.7167 305.451 83.75C306.405 83.5767 307.271 83.36 308.051 83.1C308.918 82.7533 309.698 82.19 310.391 81.41C311.518 80.11 312.645 78.8533 313.771 77.64C314.985 76.34 316.155 74.9967 317.281 73.61C318.495 72.1367 319.751 70.4033 321.051 68.41C322.438 66.4167 323.521 64.5533 324.301 62.82C324.648 62.56 325.038 62.6033 325.471 62.95C325.991 63.3833 326.511 63.86 327.031 64.38C327.551 64.8133 328.115 65.29 328.721 65.81C328.721 65.8967 328.635 66.1567 328.461 66.59C327.681 67.8033 326.685 69.2333 325.471 70.88C324.345 72.44 323.391 73.8267 322.611 75.04C321.918 75.9933 321.181 76.9467 320.401 77.9C319.708 78.8533 318.971 79.7633 318.191 80.63C317.585 81.3233 317.021 81.9733 316.501 82.58C316.068 83.1867 315.591 83.8367 315.071 84.53C313.945 85.9167 312.775 86.9567 311.561 87.65C309.308 88.8633 307.185 88.7333 305.191 87.26C304.238 86.5667 303.241 85.8733 302.201 85.18C301.248 84.4867 300.295 83.7933 299.341 83.1C298.908 82.6667 298.475 82.2333 298.041 81.8C297.695 81.28 297.305 80.76 296.871 80.24C295.225 77.9 294.098 75.5167 293.491 73.09C293.318 72.2233 293.231 71.3567 293.231 70.49C293.145 69.6233 293.188 68.7567 293.361 67.89C293.795 64.25 294.748 60.9133 296.221 57.88C296.741 56.84 297.261 55.8 297.781 54.76C298.301 53.72 298.865 52.7233 299.471 51.77C300.165 50.6433 300.858 49.56 301.551 48.52C302.331 47.48 303.068 46.44 303.761 45.4C305.668 42.8 307.965 40.8933 310.651 39.68C311.258 39.42 311.821 39.2033 312.341 39.03ZM307.271 61C308.138 60.5667 308.831 60.1767 309.351 59.83C309.958 59.3967 310.521 58.9633 311.041 58.53C312.428 57.5767 313.468 56.1467 314.161 54.24C314.595 53.2867 314.898 52.3333 315.071 51.38C315.245 50.4267 315.418 49.4733 315.591 48.52C315.678 47.9133 315.721 47.35 315.721 46.83C315.808 46.2233 315.765 45.6167 315.591 45.01C314.205 45.8767 313.035 47.1767 312.081 48.91C311.128 50.8167 310.305 52.7667 309.611 54.76C309.005 56.7533 308.225 58.8333 307.271 61Z" fill="black"/>
</svg>
