<svg width="86" height="73" viewBox="0 0 86 73" fill="none" xmlns="http://www.w3.org/2000/svg">
<path d="M82 61.7778C82 63.6932 81.2529 65.5302 79.9231 66.8847C78.5933 68.2391 76.7897 69 74.9091 69H11.0909C9.21028 69 7.40668 68.2391 6.07688 66.8847C4.74708 65.5302 4 63.6932 4 61.7778V22.0556C4 20.1401 4.74708 18.3031 6.07688 16.9487C7.40668 15.5942 9.21028 14.8333 11.0909 14.8333H25.2727L32.3636 4H53.6364L60.7273 14.8333H74.9091C76.7897 14.8333 78.5933 15.5942 79.9231 16.9487C81.2529 18.3031 82 20.1401 82 22.0556V61.7778Z" stroke="white" stroke-width="7.09091" stroke-linecap="round" stroke-linejoin="round"/>
<path d="M43 55C50.732 55 57 48.5081 57 40.5C57 32.4919 50.732 26 43 26C35.268 26 29 32.4919 29 40.5C29 48.5081 35.268 55 43 55Z" stroke="white" stroke-width="7.09091" stroke-linecap="round" stroke-linejoin="round"/>
</svg>
