<svg width="125" height="125" viewBox="0 0 125 125" fill="none" xmlns="http://www.w3.org/2000/svg">
<path d="M98.3333 57.2917H25.4167C19.6637 57.2917 15 61.9554 15 67.7084V104.167C15 109.92 19.6637 114.583 25.4167 114.583H98.3333C104.086 114.583 108.75 109.92 108.75 104.167V67.7084C108.75 61.9554 104.086 57.2917 98.3333 57.2917Z" stroke="white" stroke-width="10.2323" stroke-linecap="round" stroke-linejoin="round"/>
<path d="M36 57.2917V36.4584C36 29.5517 38.7437 22.9279 43.6274 18.0442C48.5112 13.1604 55.135 10.4167 62.0417 10.4167C68.9483 10.4167 75.5721 13.1604 80.4559 18.0442C85.3397 22.9279 88.0833 29.5517 88.0833 36.4584V57.2917" stroke="white" stroke-width="10.2323" stroke-linecap="round" stroke-linejoin="round"/>
</svg>
