<svg width="46" height="40" viewBox="0 0 46 40" fill="none" xmlns="http://www.w3.org/2000/svg">
<path d="M40.6203 5.33443C39.6022 4.33011 38.3934 3.5334 37.0629 2.98984C35.7324 2.44628 34.3064 2.1665 32.8663 2.1665C31.4261 2.1665 30.0001 2.44628 28.6696 2.98984C27.3391 3.5334 26.1303 4.33011 25.1122 5.33443L22.9993 7.41778L20.8864 5.33443C18.8299 3.30671 16.0407 2.16755 13.1324 2.16755C10.224 2.16755 7.43482 3.30671 5.37833 5.33443C3.32183 7.36215 2.1665 10.1123 2.1665 12.9799C2.1665 15.8476 3.32183 18.5977 5.37833 20.6255L7.49125 22.7088L22.9993 37.9998L38.5074 22.7088L40.6203 20.6255C41.6389 19.6216 42.4469 18.4297 42.9981 17.1179C43.5494 15.806 43.8332 14.3999 43.8332 12.9799C43.8332 11.5599 43.5494 10.1539 42.9981 8.84202C42.4469 7.53018 41.6389 6.33828 40.6203 5.33443Z" stroke="#B9B9B9" stroke-width="2.5" stroke-linecap="round" stroke-linejoin="round"/>
</svg>
