<svg width="38" height="43" viewBox="0 0 38 43" fill="none" xmlns="http://www.w3.org/2000/svg">
<path d="M19 43C8.52 43 0 34.48 0 24C0 13.52 8.52 5 19 5C29.48 5 38 13.52 38 24C38 34.48 29.48 43 19 43ZM19 8C10.18 8 3 15.18 3 24C3 32.82 10.18 40 19 40C27.82 40 35 32.82 35 24C35 15.18 27.82 8 19 8Z" fill="#B9B9B9"/>
<path d="M19 25C18.18 25 17.5 24.32 17.5 23.5V13.5C17.5 12.68 18.18 12 19 12C19.82 12 20.5 12.68 20.5 13.5V23.5C20.5 24.32 19.82 25 19 25Z" fill="#B9B9B9"/>
<path d="M25 3H13C12.18 3 11.5 2.32 11.5 1.5C11.5 0.68 12.18 0 13 0H25C25.82 0 26.5 0.68 26.5 1.5C26.5 2.32 25.82 3 25 3Z" fill="#B9B9B9"/>
</svg>
